<svg id="Capa_1" data-name="Capa 1" xmlns="http://www.w3.org/2000/svg" viewBox="0 0 1280 821.98"><defs><style>.cls-1{fill:#fff;}</style></defs><path class="cls-1" d="M616,1.5C510.5,14.6,404,109.1,291.3,290,270,324.2,259.8,341.9,172,498.5,127.3,578.2,80.8,661.3,68.6,683L46.5,722.4,46,709.5l-.5-13-22.8-.3L0,696V822H46V796.4L163.1,591.9c64.4-112.4,117.8-205.1,118.7-206s63.8-40,139.7-86.9,149-92.3,162.4-100.8C620,175.4,623.2,174,639.6,174c15.8,0,19.2,1.3,45.9,18,7.7,4.8,80.8,50,162.5,100.5S997.3,385,998.2,385.9s37.1,63.5,80.4,139.1,96,167.6,117.1,204.4l38.3,67V822h46V695l-22.7.2-22.8.3L1234,709l-.5,13.4L1185.9,638C984,279.8,998.3,304.7,963.5,252,923,190.6,886.2,144.2,846.3,104.3,768.7,26.9,691-7.8,616,1.5Z" transform="translate(0 -0.02)"/><path class="cls-1" d="M395.1,354c-52.3,32-81.9,50.6-82.7,52.1-1,2.1-25.7,58.3-84.4,192.9-9.2,21.2-32.6,74.6-51.9,118.8S141,798.4,141,798.6s224.5.4,499,.4,499-.2,499-.4-15.8-36.6-35.1-80.8S1061.2,620.2,1052,599s-29.5-67.5-45-103-30.8-70.5-34-77.9-6.3-13.7-6.7-14.1c-.9-.9-162.1-100-162.6-100-.1,0,4.6,46.5,10.4,103.2,24.9,240.8,23.1,222,21.9,229-3.4,18.6-18.4,34.5-35.9,37.8-7.9,1.5-311.2,1.4-318.3-.1-13.6-2.9-25.2-12.3-31.5-25.5-3.4-7.1-3.8-8.8-4.1-17.4-.2-6.9,3.9-51.5,15.2-165,8.5-85.5,15.7-157,16-158.8s.2-3.2-.2-3.1S439.9,326.6,395.1,354Z" transform="translate(0 -0.02)"/></svg>