<svg id="Capa_1" data-name="Capa 1" xmlns="http://www.w3.org/2000/svg" viewBox="0 0 418.59 379.4"><defs><style>.cls-1{fill:#fff;}</style></defs><path class="cls-1" d="M413.5.22c-3.11.62-6.22,1.26-9.3,2-6.36,1.56-12.64,3.4-18.88,5.36A276,276,0,0,0,335,29.45c-13.81,7.6-27.32,15.43-39.91,25A357.44,357.44,0,0,0,258,86.3c-3.17,3.17-6.28,6.37-9.21,9.76-4.57,5.29-9,10.7-13.52,16l-3.6,4.28c-.4.48-.84.94-1.21,1.44-1.07,1.45-.7,2.29-.5,4.08.22,2,.22,3.88-1.73,5-1.11.64-2.6.54-3.47,1.59-1.19,1.43-.3,3.56-1.09,5.14s-2.83,2.19-4.47,2.6-2.72.81-3.08,2.64-.1,3.35-2,4.4c-1.5.83-3.58.57-4.77,1.94s-.47,3.09-1.4,4.52c-1.26,1.93-2.66,1.83-4.59,2.37-1.71.48-1.75,1.68-2.08,3.13a5.35,5.35,0,0,1-3.09,3.9c-1.24.51-2.77.15-4,.75-2.27,1.14-.7,4-2.46,5.48-1.26,1.07-3.3.4-4.23,1.94-.82,1.33-.06,3.12-.49,4.55-.76,2.54-3.31,1.89-5.31,2.67s-1.68,2.78-2.35,4.55c-.78,2.08-2,2-3.87,2.35-4.42.87-1,4.42-3.62,6.44s-5.25-.77-6.21,3.43c-.3,1.33-.47,3.76-1.94,4.36-1.14.46-2.54-.54-3.62-.92-2.23-.77-2.83.12-4.5,1.6-1.45,1.29-2.88,2.54-4.22,3.94-5,5.27-10.41,10.16-15.33,15.55l.2-.11c-2.49,2.59-5.43,5.44-7.15,8.61-1.18,2.18-.45,4.62-.47,7,0,3.77-1,8.38-3.39,11.35a19.05,19.05,0,0,1-4.48,3.66c-.84.53-3.5,1.73-3.67,2.24l.2.2c4.15,4,8.81,8.68,13,13,5.61,5.73,10.58,12.54,16.43,17.76a8.57,8.57,0,0,0,2.13,1.76c1.22.43,1.35-.17,2.36-1,3.35-2.82,6.89-5.43,10.25-8.24,2.05-1.72,4.65-3.5,6.2-5.71,2.71-3.88-2.66-5.27-4.54-7.68,4-1.82,8.49.17,12.56-1.06,2.15-.65,6.81-4.56,5.57-7.19-.6-1.29-3.91-2.19-4-3.62-.17-2.77,8.09-2.8,9.76-2.74,2.73.1,3.77,0,5.66-2.16,2.47-2.86,4.91-5.69.39-7.58-2.13-.9-2.94-2.46,0-2.84,2.78-.36,5.64-.21,8.42-.37,1.88-.1,2.79-1,4.17-2.27,2.12-2,6.45-4.66,2.67-7.15-.84-.55-3.16-1.19-2.57-2.74.3-.79,1.65-1.13,2.36-1.37,2.54-.87,5.43-.55,8.08-.47a10.27,10.27,0,0,0,2.06.12c1.37-.26,2.23-1.55,3.24-2.4,2.23-1.85,3.71-3.18.76-5.18-.78-.53-4.27-1.73-4-2.88.34-1.52,3.61-1.86,4.76-2,2.68-.34,6.3.34,8.79-.66,1.94-.78,7.46-5.26,6.47-7.55-.69-1.63-3.57-2.47-4.94-3.74a24.58,24.58,0,0,1,8.84-.66c2.58.14,3.43.05,5.34-1.75,1.16-1.09,2.35-2.14,3.55-3.19l-.26.12c2.9-1.78,2.06-3.78-.39-5.31-.76-.48-3.3-2-2.85-3s4-.78,4.85-.75l-.23-.08a69.93,69.93,0,0,0,7.37.59c2.49.19,3.55-1.36,5.22-2.9,1.17-1.09,3.75-2.49,3.79-4.31,0-2.25-3.27-2.71-4.53-4.07-3-3.29,7.69-3.37,9.46-3.36,2.22,0,3.74.35,5.55-1.36.95-.9,3.09-2.53,3.56-3.79.72-1.91-.93-2.55-2.28-3.34-1-.57-2.38-1.53-1.89-2.87.67-1.87,4.45-1.41,5.93-1.36,2.5.09,5,0,7.48,0a11.24,11.24,0,0,0,6.5-2.26c6.55-4.24,12.3-9.87,18-15.21s13.19-10.05,15.55-17.75A122.78,122.78,0,0,1,347,83.47a355.56,355.56,0,0,1,33.9-43.34c5.76-6.28,12-12.12,18.07-18.06,3.12-3,6.36-5.93,9.5-8.94,1.69-1.62,3.39-3.24,5-5s4.25-3.73,5.25-5.81C420.43-1.32,415.39-.15,413.5.22ZM148.07,246.34l7.21-6.84L185,211.35l52.69-50,26-24.65,6.4-6.07c1-1,5.17-6,6.48-5.44,1.62.68-1.08,2.62-1.54,3.06l-7.23,6.86L162.49,235l-14.43,13.69c-.47.45-1.57,2-2.39,1.14C144.64,248.76,147.45,246.93,148.07,246.34ZM278.83,132l-2.47,2.34-15.06,14.3-28.09,26.65-35.84,34-13.81,13.1-21.85,20.74-5.27,5c-1.77,1.69-3.61,4.08-5.66,5.38-1.86,1.18-2.11-.12-.81-1.55,1.7-1.87,3.73-3.54,5.57-5.28q43.16-41,86.34-81.91l11-10.4,21.83-20.72c1.2-1.14,3.55-4.46,5.14-4.72C282.35,128.53,279.45,131.46,278.83,132Zm35.06-3.52a56.42,56.42,0,0,1-7.93,6.71c-2,1.45-4.58,3.87-7.12,4.13-3.14.34-6.11-2.63-7.11-5.37-1.5-4.13,1.58-7.15,4.58-9.61a68.62,68.62,0,0,1,7.93-5.74c2.87-1.73,5.56-3.65,9-2.36C320,118.85,317.79,124.4,313.89,128.52Z" transform="translate(-0.46 0.25)"/><path class="cls-1" d="M99.38,237.35A51.19,51.19,0,0,0,90,232.51c-2.81-.95-10.24-1.71-8.19,3.56.87,2.3,5.14,3.58,7.13,4.42a87.68,87.68,0,0,1,10.37,5,104.52,104.52,0,0,1,15,10.62c6.28,5.35,11.63,11.43,17.41,17.29,5.95,6,11.15,12.66,18,17.81a114.23,114.23,0,0,0,15.44,10,.37.37,0,0,0-.12-.13c2.92,1.8,6.42,3.81,9.92,4.14,4.48.43,5.56-3.28,2-5.68-2.83-1.91-6.1-2.91-9.14-4.41s-6.24-3.26-9.24-5a83.13,83.13,0,0,1-11.63-8.21c-4.94-4.08-8.59-9.47-13.05-14-5.57-5.67-11.09-11.36-16.71-17A89.51,89.51,0,0,0,99.38,237.35Z" transform="translate(-0.46 0.25)"/><path class="cls-1" d="M151,285c-.22-.14,0,0,0,0Z" transform="translate(-0.46 0.25)"/><path class="cls-1" d="M144.7,279.83l0,0Z" transform="translate(-0.46 0.25)"/><path class="cls-1" d="M95.58,330.56c3-4.59,5.5-9.61,9-13.87a166,166,0,0,1,16.24-16.88,132.75,132.75,0,0,1,19.84-14.32c-4.64-5.69-9.79-10.54-15-16.09-4.9-5.25-10.14-10.9-16.22-14.82-.91,7.06-6,15.5-13.17,17.35-2.44.63-8,.16-9.4,2.6-1.16,2-1.62,4.8-2.61,6.93a25.84,25.84,0,0,1-5.07,7.47c-2.39,2.23-5.79,3.65-8.77,4.89-2.58,1.08-5.4,1.83-7.89,3.11-2.86,1.48-1.85,5.24-2.92,7.93-2,5-7.07,9.84-11.68,12.58-2.9,1.73-6.74,2.12-10.06,2.34-1.37.09-2.94,0-4,1.07-.87.93-1.09,2.62-1.66,3.76-1.48,3-3.31,4.74-6.64,5.32-3.52.61-7,.17-10.51-.24-2.92-.34-6-1-8.95-.32-3.89.95-5.12,4.23-5.53,7.91-.69,6.28.17,12.89,1.4,19,1.28,6.42,2.41,14.09,6.18,19.56,1.78,2.64,6,3,8.86,3.1s6,.24,9,.12c4.69-.2,11.79,0,15.74-2.94,7.46-5.62,11.64-14.23,21-17.27l-.31,0c7.33-1.58,13.59-7.06,19.23-11.67S91.49,336.7,95.58,330.56Zm-57.37,28c-1.46,3.84-7.44,5-10.65,3-3-1.85-4.81-6-3.08-9.31,1.63-3.13,6.91-3.64,9.82-2.24S39.41,355.43,38.21,358.58Z" transform="translate(-0.46 0.25)"/></svg>