<svg id="Capa_1" data-name="Capa 1" xmlns="http://www.w3.org/2000/svg" viewBox="0 0 1279.54 220.4"><defs><style>.cls-1{fill:#fff;}</style></defs><path class="cls-1" d="M827.4,210.4a38.67,38.67,0,0,0-8.8,4.5l-4.6,3.2V255h-2.7c-1.6,0-21.7-.9-44.8-2.1l-42-2-9.2,9.8c-5.1,5.3-9.5,9.4-9.9,9s-.1-4.1.6-8.3c1.2-7.2,1.2-7.8-.5-9-1.9-1.4-18.7-2-21.9-.8-.9.4-3.6,3.6-6,7.3a58.32,58.32,0,0,1-5.9,8c-1.5,1.2-1.7,1.1-1.7-1a36.5,36.5,0,0,1,1-6.3c1.6-7.1.7-7.6-12.8-7.6H646.4l-7.5,8.7-7.4,8.8-.3-8c-.2-4.8-.8-8.2-1.5-8.7s-5.7-.8-11.2-.8h-10l-7.8,8.2-7.8,8.3.7-5c1-7.1.8-9.6-.8-10.6-.7-.5-5.9-.9-11.6-.9H570.9l-4.2,4.7c-2.3,2.6-5.9,6.5-8,8.8l-3.9,4,.8-4.5a63.53,63.53,0,0,0,.8-8l.1-3.5-12.6-.3-12.7-.3-5.1,7a68.67,68.67,0,0,1-6.8,8.2c-1.5,1.3-1.6,1.1-1-1.1.3-1.4.9-4.8,1.3-7.7.6-5.1.6-5.2-2.1-5.9-1.5-.4-24.2-.4-50.4-.1l-47.6.5L393,257.4C223.4,280.6,136.1,294.1,48,311l-35,6.7c-9.4,1.7-13,3.4-13,6.1,0,2.1,12.6,14.6,21.6,21.5,31,23.5,78,40.5,132.2,47.6,23.2,3.1,41.8,4,100.7,5.1,30.3.5,84,1.5,119.5,2.1s131.1,1.2,212.5,1.3l148,.1,1.4-3c2.7-6,8.2-10.5,15.6-12.8,6-1.9,9.3-2.2,23-2.2,8.8,0,21.3.4,27.7.9l11.8.8.2,19.1.3,19.2,6,3c5.1,2.5,7.2,3,13.5,3s8.3-.4,13-3l5.5-3,.3-21.4.2-21.3,5.3.6c11.7,1.4,59.7,3.6,98.6,4.6,60.3,1.5,134.1-.4,215.1-5.5,37-2.4,42.8-3,44.8-4.9,2.3-2,7.2-2.1,9.8-.1,1.5,1.1,5.7,1.4,20.1,1.5,10,0,18.8-.3,19.7-.6,1.8-.7,8.5-20.5,11.2-33.4s2.5-36.1-.5-50c-3-13.6-9.9-36.3-11.4-37.2-.7-.4-9.4-.8-19.3-.8-16.6,0-18.3.2-20.7,2-3.1,2.5-4.2,2.5-8.1,0-3.5-2.1-10.6-2.6-74.1-5.2-47.6-2-203.2-1.6-249.7.5-20.2.9-37.6,1.7-38.7,1.7-2,0-2.1-.5-2.1-18.5V217l-3.9-2.6c-4.2-2.7-12.1-5.4-15.5-5.3A28.6,28.6,0,0,0,827.4,210.4ZM31.1,340.7c1.3,1.6,1.2,1.7-.3.4a5.73,5.73,0,0,1-1.8-1.7C29,338.6,29.8,339.1,31.1,340.7Z" transform="translate(0 -209.1)"/></svg>