<svg id="Capa_1" data-name="Capa 1" xmlns="http://www.w3.org/2000/svg" viewBox="0 0 1228.02 1140.4"><defs><style>.cls-1{fill:#fff;}</style></defs><path class="cls-1" d="M1143.66,32.79c-11.81,2.3-23.61,9.4-27.83,16.79-2.11,3.74-34.06,36.75-49.12,50.66l-5.57,5.18-5.56-1.63c-17.08-4.8-28.69-3.93-51.52,3.74-8.45,2.78-16.7,5.38-18.33,5.66-2.11.48-4.41,2.5-8.35,7.39-6.52,7.87-14.87,14.3-22.54,17.27-6.62,2.5-15.93,2.88-29,1-10.17-1.44-22.45-1-36.07,1.34-25.33,4.42-39.82,10-54.12,20.73-4.79,3.64-8.34,5.66-9.4,5.37-.86-.19-6.62-1.92-12.66-3.84-21.11-6.43-50.28-11.13-82.51-13.14-21.3-1.35-83.86-1.25-90.38.09-22.55,4.71-38.38,11.71-56.9,25.24-1.63,1.24-2.59,1.24-7.2,0-6.81-1.73-14.1-1.73-34.15.19L526,176.42l-4.42-3.07c-5.37-3.74-14.39-8.25-18.32-9.11a56.19,56.19,0,0,1-8.73-3.65,34.17,34.17,0,0,0-22.26-2.69c-2.69.58-8.64,3.36-13.34,6s-10.46,5.56-12.86,6.52-10.07,5.85-16.79,11C403.93,200.41,380.8,215.37,319,252.7c-24.75,15-47,28.78-49.41,30.79-6.33,5.28-10.36,11-12.09,17.18a59.87,59.87,0,0,1-3.45,9.11c-1.73,3.55-1.73,3.65.19,8.16,4.42,10.36,4,19.19-1.44,30.7-2.78,5.85-4.89,8.64-10.93,14.2-4.9,4.61-8.54,8.92-10.56,12.86-2.78,5.18-3.07,6.52-2.69,11.8a58.1,58.1,0,0,0,1,7.87c.58,1.53-.38,2.68-4.41,5.75-22.45,17.18-47.2,40-62.84,58.05-37.42,43.17-52.48,71.19-62.08,115.61-6,27.82-9.78,42.79-13.43,52.77-1.92,5.28-4.89,15.45-6.72,22.55C74,674.76,68.22,691,54.69,720.62l-7.77,17.27,1.15,39.33C50,839,50,839.2,45.77,862.61,41,888.81,38,900.9,34.16,909.91c-9.6,22.46-10.85,51.91-3.17,72.35,4.41,11.51,13.34,22.93,22.74,29.16,2,1.35,3.55,3,3.36,3.55-1.63,4.9-15.45,53.64-17.37,61.41-5.76,23-3.65,37.7,6.72,48.16,8,7.87,9.11,8.25,56.6,18.71,41.16,9,44.62,9.6,54.79,9.6,26.38,0,42.79-6.91,47.39-19.87.68-2,2.31-5.85,3.55-8.53,3.94-8.35,11.13-45.29,15.36-78.39l1.72-13.14,3.84-1.06c16.12-4.32,28.21-18.33,31.76-36.75,2.59-13.62,1.92-24-3.74-56.7l-5.18-29.65,5.66-8.25a207.36,207.36,0,0,1,13.33-17l7.68-8.83,3.36-14.2c8.53-36,11.51-45.67,17.84-57.85,3.46-6.72,9.6-14.39,11.32-14.39.48,0,2.4,1.82,4.42,4s10.55,11.22,19.09,19.86c12.95,13.05,22.55,21.87,51,46.63,1.34,1.15,5.09,9.21,9.88,21.1,4.13,10.56,10,24.57,13,31.19,5.08,11.22,16.59,33.29,19.09,36.45,1.25,1.64,34.83,23.8,39.82,26.29,3,1.54,3.07,1.73,2.49,6.62-.77,6.62,1,20.63,3.93,31.09,1.35,4.8,6.14,16,10.94,25.71,8.06,16.41,8.92,17.66,15.64,24,12.28,11.61,25.33,16.41,47.49,17.46l12.67.58,14.58,32.23c8,17.75,15.83,34.64,17.37,37.52C603,1167,616.54,1174,639,1172.71c8.83-.48,11.9-1.25,22.16-4.8,39.63-14.11,81.07-34.54,125.4-61.79,16.41-10.07,90.57-59.29,111.49-74,24.85-17.56,50.47-37.42,67.93-52.87a236.05,236.05,0,0,1,21.68-16.4c33.77-22.36,68.6-56.13,97.77-94.8,13.91-18.42,16.69-34.35,9-50.56-3.94-8.16-11.52-16.41-28.69-30.89-10.08-8.54-16.41-16.7-24.75-31.57l-4.9-8.83,3-3.16a27.48,27.48,0,0,0,6.23-27.25c-3.45-12-5.85-15.16-28.88-38.47C997.24,658.06,993.6,654.8,987.94,652c-5.37-2.59-7.77-3.27-12.86-3.27l-6.33-.09.67-7.68c2.3-27.82,1.73-38.28-2.49-52.86-1.73-6.14-4.42-10.27-30.42-46.06L908,502.82l-7.49-26.38c-4.12-14.49-7.67-26.87-8-27.44s2.88-1.73,7.48-2.69c18.71-4,60.35-30.12,83.57-52.29a241.33,241.33,0,0,0,17.27-18.61c4.41-5.28,8.83-10.65,9.88-11.9,1.73-2,3.36-2.49,13.44-3.64,24.17-2.88,39.62-8.54,67.16-24.66,19.09-11.23,29.45-19.38,45-35.41,15-15.44,28.12-36.84,31.28-51,.48-2.2,1.25-5.66,1.63-7.58.67-3.16,4.32-6.81,29.65-29.84,20.92-19.09,31.09-27.63,37-31.18,18.62-11.22,22.36-22.35,13.44-39.53-2-3.93-6.34-12.18-9.5-18.32A247.48,247.48,0,0,0,1218.4,88c-14-18.42-45.1-49.41-53.35-53.06C1160.73,33,1148.84,31.83,1143.66,32.79Z" transform="translate(-25.99 -32.45)"/></svg>