<svg id="Layer_1" data-name="Layer 1" xmlns="http://www.w3.org/2000/svg" viewBox="0 0 1100 1053.33"><defs><style>.cls-1{fill:#fc9c12;}</style></defs><path class="cls-1" d="M1149.32,419.42c-3.66-39.68-52.16-70.24-89-55.87-14.5,5.65-27.72,17.9-33.43,32.64-1.57,4-4.32,25.06,5.18,22.95,4.22-.94,10.28-15.95,13.24-18.81,14.94-14.44,47.64-13.91,59.49,4.09,9.25,14.05,12.67,31.81,1.3,46.27-15.61,19.83-41.32,17.54-63.79,16.16-20.62-1.26-41.18-8.3-60.52-15.43-33.12-12.21-68.61-27.07-104.4-28,15-33.15,23.08-73.06,23.21-109.26A300.2,300.2,0,0,0,882,208.75c-11.31-30.1-30.69-61.79-55.23-82.9-39-33.56-101.32-39.51-144.2-9.48C655.26,135.45,639.12,171,607,182.83c-30.21,11.09-32-28-34.08-49-2.12-21.36-7-42.3-31-48.25-12.22-3-24.74,1.93-36.75,4.22-4,.78-14.48,3.63-18.22.74-2.28-1.77-2.18-5.13-3.21-7.71-3.77-9.46-10.48-13-18.15-5.09-10,10.31-6.06,25.49,5.06,32.33,10.81,6.64,23.45,5.91,35.4,3.65,10-1.88,22.27-6.91,32.55-4.65,14.56,3.18,10.3,20.95,8.71,31.61-2.13,14.27-4.09,28.92.89,42.86,5.35,15,17.34,29.3,30.45,38.15,22.54,15.23,52,6.93,73.28-6.94C690.08,189.86,741.08,125.34,790,166c32.7,27.19,35.92,83.41,35.72,122.23-.15,29.86-8,57.89-20.35,84.79-8.93,19.4-20.24,35.33-34.71,50.93-16.29,17.57-29.83,32.11-53.54,40.23s-40.39,10.28-60.31-6.33c-10.95-9.14-15.9-19.72-23.47-31.34-6.31-9.67-15.93-15.94-24.56-23.23-11.53-9.75-20.59-22.84-21.49-38.33-.89-15.26,5.32-30.65-1.46-45.41-4.19-9.11-13.19-14.17-20.86-20-9.73-7.44-14.5-16.57-19.56-27.43-22.7-48.69-66.13-75.85-119.58-77.71-41.12-1.43-88-2.32-124.87,18-46.35,25.51-80.93,87-50.55,137.49,26.66,44.29,73.43,61.41,122.26,68.58,15,2.21,33.27,1.9,34.33,21.08.76,13.8-15.66,12.05-25.73,13.65-8.46,1.34-17.77,2.39-25.54,6.09-11.29,5.38-18.93,15.27-27.51,23.92,9.44-9.94-12.59-46.44-18.83-54.41-14.33-18.32-39.64-28.86-62.53-31.64-39.66-4.83-85.22,29.09-105.82,60.45-11.83,18-18.23,35.5-18.56,57.08-.53,35.08,21,75,53.68,89.23,27,11.81,62.26,12.27,90.26,3.79-3.26,7.57-3.88,15.53-9.33,22.41-7.55,9.53-16.55,10.69-27.91,10-5.29-.34-14-2.65-12.89,5.11.64,4.63,6.58,8.5,10.21,10.46,5.69,3.07,12,4,18.35,3.69,24.78-1.14,43.53-19.53,54.43-40.48,3.48-6.69,2.9-14,5.47-20.62,2.1-5.49,4.27-3.9,11-5.83,20.37-5.83,35.92-17.35,52.59-29.64,5.69-4.2,11.34-8.45,17.05-12.62s11.66-10.92,11.47-1.8c-.29,13.67-14.88,29.91-23.11,39.21-13.59,15.36-28,29.92-44.86,41.74-15.95,11.19-33.31,20.43-50.26,30-11.54,6.5-23.51,8.37-35.55,12.85-17.26,6.42-30.93,22.33-45.21,33.37-13.4,10.36-27.57,20.79-42.86,28.31C136.11,743,102.66,739,97.59,714.41a34.77,34.77,0,0,1,6.16-27c6.09-8.47,19.86-16,30-9,6.15,4.25,7,15.38,3.89,21.63-1.94,3.93-6.74,6.3-1.35,9.69,10.39,6.52,23.53-7.85,25.34-16.83,5-24.73-18.82-43.78-41.81-43.85-20.19-.06-42.91,10.87-55.9,26.41-17.68,21.13-17.46,48.17-5.24,72C79,787,130.2,790.6,168,779.38c7.8-2.32,16-4.54,23.19-8.37-3.71,15.2.83,32.77,4.2,47.5,4,17.34,8.85,32,20.47,45.79C238.42,891.12,269.18,899,303,896.62s73.76-18.54,87.85-51.49c8.83-20.66,15.14-38.55,15.12-61.57,0-30.36-8.18-57.92-23.88-83.84,31.42-23.6,64.59-42.21,88.42-74.76-.73,10.25.57,19.69-2.09,30-3.07,11.9-8.58,23.33-13.17,34.73-5.16,12.85-10.92,25.3-16.89,37.79-17.7,37-33,78.65-27.47,120.26,9.05,68.31,99.18,114.53,77,188.58-6.15,20.55-16.69,43.18-35.81,54.73a60.68,60.68,0,0,1-36.21,8.94c-18.27-1.36-29.42-10.21-45.33-17.75-12.3-5.82-16.75.19-9.14,10.85,5.3,7.41,11.66,12.15,19,17.23,9.09,6.32,18.19,13.42,29.44,15.55,8.63,1.63,19.05.52,27.8-.62,89.69-11.62,122.12-127.11,84.35-198.73-9.89-18.74-23.7-34.38-34.51-52.31-14-23.24-13.94-47.18-5.13-72.41,14.48-41.45,52.09-71.71,69.16-112.1,3.53-8.36,5.38-17.16,7.71-25.91-.58,3.4,1.56,8.11,2,11.64a121.35,121.35,0,0,1,.94,17.46c-.16,15.48-2,31.09-3.55,46.48-1.4,13.55-3.68,26.59-6.33,39.93C546,811,539.56,843.51,539.12,876c-.46,33.93,5.78,67.55,17.37,99.42,9,24.84,23.23,44.51,40.77,63.89a182.07,182.07,0,0,0,37.62,32.09c18.47,11.71,36.61,24.9,56.56,33.93,21.95,9.93,46.93,18.89,71.16,20.43,27.26,1.73,51.22-26,32.35-51.25-4.24-5.68-10.45-9.1-16.61-12.31-2.74-1.43-8.13-5.56-11.16-3.86-6,3.39,2.28,10.54,4.89,13.14,3.28,3.28,6.76,6.16,8.78,10.49,6.78,14.58-10.25,21.51-22.17,21.52-24.67,0-48.63-10.08-69.16-23.12-31.06-19.73-53.63-58.16-62.16-93.3-4.55-18.8-7-38.33-8.49-57.6-1.47-18.53-3.76-38.33-.63-56.88,7.74,19.07,25.53,37.63,39.46,52.61,19,20.42,48.69,31.9,75.76,36.25,28.06,4.5,57.29-5.85,73.39-30.79,11.63-18,21.15-48.28,19.87-70.44-2-34.65-34.2-50.46-63-60.55-16-5.61-38.9-10.14-47.7-26.22-2.87-5.23-3.49-11.95,2.74-14.31,8.5-3.22,16.84,5.88,23.36,9,14.77,7.11,5.48-21-3.21-25.68-13.4-7.25-32.41-5.45-42.93,5.81-13,13.94-8,34.31,1.25,48.78,7.05,11,17,17.57,28.63,23.16,19.71,9.45,52.41,16.84,55.09,43.42,2.1,20.81-16,35.16-35.23,35.68-21.08.58-35.69-12.36-46.58-29.18-25.42-39.26-32.9-94.16-11.56-137,3.27-6.56,2.92-5.94,9.85-5.45q14.12,1,28.11,3c15.2,2.17,30.39,4.7,45.14,9,28.24,8.27,51.81,22.8,55.66,54.45,3.46,28.53,1.87,60,22.75,82.47,22,23.62,55.62,27.88,84.61,16.84,19.86-7.56,36.83-20.12,45.82-39.9a76.06,76.06,0,0,0,6.25-26.06c.29-3.86,2.4-25-6.2-16.69-2.45,2.37-4.3,11.72-6.37,15.2a82.27,82.27,0,0,1-20.87,22.93c-10.46,8.09-23.06,15-36.7,13.89-30.86-2.57-47.27-29.17-46.61-58.68.64-28.7,7.88-65.09-17.69-86-5.9-4.81-12.51-9-18.81-13.28,9.29,2,19.42-.11,28.64-1.35a224.37,224.37,0,0,0,44.44-10.29c21.81-7.58,41.65-20.4,54.15-40.29,17.51-27.85,21.93-62.06.9-89.49-12.49-16.29-28.87-26.55-45.05-38.67-11.57-8.66-25-16.33-34.58-27.23-2.92-3.32-5.2-6.6-3.24-11.19,3.43-8,14.14-5.14,21.08-4.23,24.71,3.25,49.61,8,73.34,15.66,32.38,10.5,60.88,25.42,96.25,22.59,29.73-2.37,59.24-14.16,72.68-42.8C1149,460.89,1151.33,437.81,1149.32,419.42Zm-880,77.51c-2.06,15-8.16,29.93-6,45.24-6.81-1.45-16.36,2.26-23.19,3.2-10.39,1.44-19.86.76-29.68-3-8.6-3.34-18.08-6.73-26-11.5-12.2-7.38-15.31-21.28-13.82-34.88,3.21-29.12,42.59-39.37,66.65-41.49C264.48,452.08,272.14,473.36,269.34,496.93Zm75.83,286.38c-2.05,20.39-23.71,46.2-46.7,40.18-19.19-5-34.89-27-30.23-46.7,4.48-18.94,30.71-37.83,48.65-43.61,2.55-.82,7.36-2.35,10.26-2.29,5.42.09,5.72,2.21,8.45,7.16C343.15,751.74,346.89,767.62,345.17,783.31ZM878,572.27c9.19,11.59,14.64,21.38,5.84,35.3-6.91,10.94-21.6,14.26-33.6,15a96.33,96.33,0,0,1-37.7-5.68c-19.25-6.82-33-16.59-47.56-30.49-10.7-10.2-19.3-21.89-29.68-32.28,25.23-5.21,59.05-9,75.14-32.24,5,8,15.81,12.47,23.3,17.85,4.56,3.28,9.08,6.57,13.8,9.63C857.92,556.06,870.43,562.33,878,572.27Z" transform="translate(-50 -73.33)"/></svg>