<svg id="Capa_1" data-name="Capa 1" xmlns="http://www.w3.org/2000/svg" viewBox="0 0 1102.4 1131.05"><defs><style>.cls-1{fill:#fff;}</style></defs><path class="cls-1" d="M1089,77.1c-9.3.8-30.5,4.4-42.9,7.3-3.9.9-6.3,1.1-6.7.4-1.5-2.4-9-6.8-11.5-6.8-3.6,0-4.9,2.4-4.9,8.7v4.8L1001.9,115c-55.9,62.3-88.5,94.2-121.4,119-19.5,14.6-31.6,22.3-95.5,60.3-27.8,16.5-61.4,38.5-96.5,63.2-16.7,11.8-24.8,16.8-26.5,16.8-1.9-.1-2.1,0-.7.5s-2.6,3.9-17.9,14.9l-19.7,14.2-3.9-4.4c-7.1-8.1-14.5-10.8-16.9-6.3-1.9,3.5-.5,13,2.9,19.7l3,6.1-26.1,30.2c-69.6,80.9-108,123.1-140.8,155.3-29,28.3-44.6,40.6-71.4,56.1-12.4,7.1-27.2,16.5-33.1,20.8-.8.7-2.9-.2-6.6-2.7-7.2-4.9-10-5.5-12.8-2.7-2,2-2.2,3-1.7,7.9a30.61,30.61,0,0,0,2.6,10l2.2,4.2-5.9,7.2c-7.7,9.5-16.6,21.8-28.9,40.3l-10.1,15-6.4,1.8c-21.6,5.8-40.3,25-47.7,49.1-4.4,14.3-4.5,33.7-.1,47.8l1.9,6.1-3.9,5.1c-2.2,2.7-5.8,7-8,9.5l-4,4.5-4.5-5.2c-8.4-9.5-23.2-14.8-35-12.3-4.9,1-6.8,2-10.4,5.6l-4.3,4.4.4,6.4c.5,7.7,3.5,12.9,10.6,18.1a37,37,0,0,0,23.2,7.7c4.1,0,8.8-.5,10.3-1.1,5.9-2.3,19.7-14.2,28.6-24.6,3.4-3.9,4.4-4.6,5.2-3.5a4.25,4.25,0,0,1,.4,2.9c-.3.8-6.8,11.4-14.4,23.5s-16,25.9-18.6,30.6-12.5,21.5-22,37.5-25.4,43.2-35.5,60.5c-24.4,42.3-39.7,67.1-49.5,81-23.2,32.5-32.8,50.4-35.1,65.5-1.3,9,5.4,18.8,16.4,23.8,6.2,2.9,20.4,3.1,27.4.4,9.1-3.5,18-16,27.2-38.3,8.5-20.6,71.5-145.6,88.4-175.4,5.5-9.7,44.6-75.2,46.9-78.6.6-.9,3.9-.8,13.3.2,6.9.8,19.3,1.5,27.5,1.6,17.7,0,26.4-1.5,37.4-6.7,19.2-9.2,35.8-35.9,39.1-63.1,2.5-20.6-3.6-36.6-20.9-54.6l-4.5-4.8,2.1-2.2c1.1-1.3,13-15.1,26.4-30.8C489.2,630,552.6,562.5,636.5,483.9,691.9,432.1,774,363.5,858,298.9c57.7-44.4,151.4-112.9,243-177.8,5.7-4.1,6-10.5.8-14.4-2.6-1.9-3.4-1.9-21.5-.8-10.3.6-20.4,1.4-22.4,1.7-3.5.5-3.5.5-7.1-6.8a80.91,80.91,0,0,1-3.5-7.4c.1-.1,5.2-1,11.2-1.9,16.1-2.6,50.5-3.2,61.4-1.1,14.7,2.7,22,8.8,27.1,22.4,3.5,9.2,4.4,15.8,4.3,30.7,0,21.9-4,45.3-14.3,85.3-10.3,39.7-21,73.9-59.5,190.2-30.1,90.9-34.9,106-45.5,142.8-6.2,21.8-6.9,23.4-9.7,25.2a16.84,16.84,0,0,0-8.1,13.4c-.4,3.8-1.2,6-3.5,8.5a25.51,25.51,0,0,0-6.7,17.8c0,7.4,1.1,10.8,5,14.8l2.9,3-2.4,14.5c-7.3,44.9-8,89.2-1.9,125.5,2.9,17.1,9.7,45.3,17,69.9,1.4,4.8,1.4,4.9-1.1,7.2-1.4,1.3-2.5,2.7-2.5,3.3,0,1.9,3.2,4.2,5.1,3.6,1.3-.4,2.9.5,5.4,2.9l3.5,3.5v12.8c.1,24.2,2.6,38.7,7.6,43.4a8.7,8.7,0,0,0,12-.2c4.8-4.3,5.7-8.1,5.8-23.8l.1-14.3-2.7-1.9c-3.3-2.4-5.1-2.4-4.4-.2,1.5,5.2,2.5,21.5,1.6,26.4-1.1,5.9-3.5,10.2-5.3,9.6-3.6-1.1-5.4-11.8-6.4-36.5-.6-16.9-.6-17.3,1.5-18.8,2.8-1.9,2.8-5.9.2-10.2a16.17,16.17,0,0,1-2-7.2c0-4.4-2.5-6.6-6.5-5.6-2.1.5-2.5-.2-6.8-14.7-12.3-40.7-16.7-68-16.7-104.6a436.05,436.05,0,0,1,5-64.6c2.9-18.9,2.7-18.3,6.8-20.4,10.5-5.4,15.6-18.4,11.9-29.9-1.5-4.3-1.5-5.3-.1-9.8,1.6-5.3,1.2-10.5-1.2-14.1-1.2-2-.7-4.6,5.6-26.6,9.6-33.9,19.2-64.2,48.5-153.2,30.3-92.2,31.3-95.2,40.9-127,13.2-44,21.9-78.6,26.8-107.2,3-17.5,3.3-51.3.5-61.3-5.7-20-17.3-31.8-36.2-36.4C1113.5,76.6,1100.6,76,1089,77.1ZM1044.4,100c3,5.5,3.2,10.3.4,10.8-2.2.4-7.8-4.7-10.6-9.6l-2.3-4.1,3.3-1C1040.9,94.5,1041.6,94.8,1044.4,100Zm-13.9,4.2a60.52,60.52,0,0,0,6.7,8.4l4.9,5.2-8.8,17.9-8.8,17.9L999.6,171C869,262.5,780.7,328.9,699.3,397.1c-12.4,10.4-23,18.9-23.7,18.9s-9.9,1.1-20.6,2.5-19.6,2.5-19.7,2.5c-1,0-5.3-8.4-4.6-9,1.1-1,43.8-30.3,70.3-48.2,29.1-19.7,54.2-35.9,100.5-64.8,56-34.9,81.2-52.3,108.5-75,24.6-20.4,74.3-72.1,110.5-114.8,3.8-4.5,7.2-8.2,7.5-8.2S1029.4,102.5,1030.5,104.2Zm46.4,13.2c-1.5,1.3-34.1,23.6-34.5,23.6-1.1,0,8.3-16.5,10.9-19.1a16.25,16.25,0,0,1,7-3.7C1064.3,117.3,1077.8,116.6,1076.9,117.4ZM617.2,405.8c1.7,1.4,1.6,1.7-1.5,3.9l-3.2,2.4-.3-3.1C611.6,402.9,612.9,402.1,617.2,405.8Zm8.8,12.8c0,.9-1,2.4-2.2,3.5-4.2,3.4-5.2,1.9-1.7-2.5C624.4,416.7,626,416.2,626,418.6Zm-13.5,34.5c-3.7,11.8-6.8,22.4-6.9,23.6s-3.4,5.1-7.7,9c-44.7,40.8-106.2,100.8-160.4,156.2-25.2,25.9-46.3,47.1-46.7,47.1s-5.7,2.2-11.6,4.9c-14.4,6.5-28.2,11.5-29.1,10.5a55.21,55.21,0,0,1-3.1-6.2l-2.3-5.2,2.4-2.6c1.3-1.4,16.5-12.1,33.6-23.6,46.9-31.5,67.3-46.8,85.7-64.7,12.8-12.6,20.3-21.2,40.1-46.6,22.1-28.3,49.2-60.2,94.3-111.3,14.3-16.2,14.5-16.3,16.4-14.4S619.1,431.9,612.5,453.1Zm44.4-20.4c0,.5-2.4,2.8-5.2,5.2s-10.7,9.3-17.4,15.2S621.8,464,621.6,464c-.6,0,2.9-12.1,5.5-19.2,2.8-7.7,7-10.5,17-11.7S657,431.9,656.9,432.7ZM329.8,686.8c.9.6.6,1.4-1.3,3.2-2.2,2-2.5,2.1-3.1.6a3.51,3.51,0,0,1,.6-3.1C327.4,685.8,328,685.7,329.8,686.8Zm11.6,15.3c.7,3.7-.7,5.9-3.4,5.2q-6-1.65-1.5-6.3C339.8,697.6,340.5,697.8,341.4,702.1Zm27.1,11.1c-23.8,24.7-30.5,31.4-30.5,30.4a39.19,39.19,0,0,1,1.4-6.1c3-11.2,11.1-22.6,18.8-26.6,3.7-1.9,12.9-4.7,15.8-4.8C374.8,706,372.3,709.3,368.5,713.2ZM337,715.4c0,1.5-6.8,25-10.1,35.1-1.8,5.4-4.1,10.3-5.8,12.2l-2.9,3.1-9.4-2.3c-5.1-1.3-11-2.6-13-2.9s-3.8-1-3.8-1.3c0-1.2,11.1-21.6,14.2-26.2a196.78,196.78,0,0,1,13.1-14.8l9.9-10.2,3.9,3.2C335.2,713.1,337,714.9,337,715.4Z" transform="translate(-57.24 -76.56)"/></svg>