<svg id="Capa_2" data-name="Capa 2" xmlns="http://www.w3.org/2000/svg" viewBox="0 0 442.19 268.54"><defs><style>.cls-1{fill:#fff;}</style></defs><path class="cls-1" d="M408.72,518.15c-1.46,1.7-3.66,4.25-6.44,7.32a41.39,41.39,0,0,0-3,3.39c-3.14,4.31-2.67,7.86-3.86,11.14-2,5.61-8.74,10.11-14.14,10.29-9.67.32-18.82-13.06-19.13-24.68-.14-5.26,3.14-11.13,9.7-22.89,7.47-13.39,8.41-11.67,18-27.86,3-5,4.9-8.59,9.14-12.71,5.16-5,7.31-4.59,9.29-8.29,3.58-6.69-1.7-11.45,1.93-17.33,2.79-4.5,7-3.59,9.35-8.1,2-4,.78-8.66-.57-12a271,271,0,0,0,94.75-54.69c1.55-.86,4.71-2.89,5-5.89.27-3.25-3-5.93-4.57-7.14-19.85-15.64-83.43-31.14-83.43-31.14-7.09-1.73-17.9-4.47-31.14-8.29v-2c.51-.55,4.89-5.36,3.43-9.71-1.63-4.87-9.29-5.43-13.14-5.71-1.44-.11-13-1-16.57,5.14-1.41,2.42-.76,4.58-2.86,6.29s-5.19,1.41-6.86,1.14c-10.63-1.72-38.05-12.24-46.29-14.86-14.59-4.63-26.91-2.83-42.29-.57a133.58,133.58,0,0,0-42.29,13.71,12.73,12.73,0,0,1,3.43,9.71,11.69,11.69,0,0,1-2.29,5.71,298.25,298.25,0,0,0-44,14.29c-6.48,2.68-15.56,7.31-33.71,16.57-25.38,12.95-30.39,16.35-30.86,21.71-.6,6.85,6.45,14,12.57,17.14,11,5.72,21.46,0,24,4.57,2,3.55-4.17,7.18-6.86,18.86-1.87,8.14.25,10.12-1.14,17.71-1.27,6.91-3.61,8.48-11.43,21.71-10.66,18.05-15,29.91-19.43,29.14-.72-.13-2.29-.74-2.5-1.79s1-1.75,3-3.86c2.49-2.57,4.66-4.86,4.5-7.5,0-.71-.1-1.66-.64-1.91-1.66-.76-6.06,5.81-16.29,19.05-4.83,6.26-6.08,7.68-8.59,8.73a15.75,15.75,0,0,1-15.83-2.31c-3.78-3.15-6.94-9-5.14-14.36.21-.62,1.78-5.08,6.21-6.64a9.54,9.54,0,0,1,4.5-.43Q108.43,448.26,107,447q-1.65-1.51-27,22.74a35.8,35.8,0,0,0-2,5.33c-.3,1.06-2.47,8.83-1.07,13.5,1.89,6.29,11.4,10.71,22.93,10.71l-.21,7.5a21.5,21.5,0,0,0,6.86-1.5,22.74,22.74,0,0,0,10.93-9.64h5.14a31.3,31.3,0,0,0,.22,17.36,32.86,32.86,0,0,0,9,13.07c2.73,2.4,10.4,9.11,20.14,7.5,1.31-.22,9.09-1.64,13.07-8.36A16,16,0,0,0,167,520L178,496l-16.29,16.71,2.36,6.21c-.54,1-5.38,9.64-13.29,9.86-4,.11-6.8-2-10.29-4.5s-12.43-9.06-13.93-19.71c-.84-5.95,1.08-10.41,4.29-17.57,8.13-18.18,21.75-31,21.64-31.07s-.81.88-.85.86a63.33,63.33,0,0,1,7.7-9.43,64.39,64.39,0,0,1,13.07-10.29,44.29,44.29,0,0,1,11.57-35.36,450.5,450.5,0,0,0,66.64,19.93c64.56,13.94,115.82,10,125.57,4.71a28.73,28.73,0,0,1,15-3.86,24.82,24.82,0,0,1,5.57.86,56,56,0,0,1-4.71,30c-11.43,9.88-16.43,18.54-18.86,24.86a53,53,0,0,1-9,16.29,40.89,40.89,0,0,1-6.43,6.43c-3.35,2.64-13.87,9.93-27,7.93-2.45-.37-13.92-2.12-17-10a13.72,13.72,0,0,1-.43-7.93,12.77,12.77,0,0,1,5.14-7l1,4,15.21-21.11-19.07,13.61a19.21,19.21,0,0,0-7.29,9.75,18.07,18.07,0,0,0,.11,11.89c2.78,7.14,10.06,9.83,14.46,11.46,12.28,4.55,23.45.21,26.21-1,1.26-.54,2.26-1.05,2.92-1.41,1.3-1.17,2.95-.94,3.44-.18a2.25,2.25,0,0,1-.64,2.57,18.59,18.59,0,0,0-5.79,7.07c-.89,1.94-2.22,4.86-.86,6.64,1.14,1.49,3.49,1.32,3.86,1.29,3.08-.27,4.6-3.2,4.71-3.43a56.91,56.91,0,0,0,4.07,13.93,31.37,31.37,0,0,0,3,5.79c1.41,2,6.7,9.68,16.07,10.29,8.34.54,14.06-4.87,15-5.79a20.7,20.7,0,0,0,5.36-9C403,533,405.86,525.58,408.72,518.15Z" transform="translate(-76.54 -286.68)"/></svg>