<svg id="Capa_1" data-name="Capa 1" xmlns="http://www.w3.org/2000/svg" viewBox="0 0 596 596"><defs><style>.cls-1{fill:#fff;}</style></defs><path class="cls-1" d="M571.5,343.9a18.71,18.71,0,0,0-10,10.3C560.2,357.5,560,370,560,459V560H458.8c-96.3,0-101.5.1-105.3,1.9a18.71,18.71,0,0,0-10,10.3c-1.3,3.2-1.5,12.2-1.5,67.8s.2,64.6,1.5,67.8a18.71,18.71,0,0,0,10,10.3c3.8,1.8,9,1.9,105.3,1.9H560V821.2c0,96.3.1,101.5,1.9,105.3a18.71,18.71,0,0,0,10.3,10c3.2,1.3,12.2,1.5,68,1.5,60.2,0,64.6-.2,68.3-1.9A19.29,19.29,0,0,0,719,924.2c.6-2.4,1-38.1,1-104V720H821c89,0,101.5-.2,104.8-1.5a18.71,18.71,0,0,0,10.3-10c1.7-3.8,1.9-7.9,1.9-68.5,0-60.4-.2-64.8-1.9-68.5A19.29,19.29,0,0,0,924.2,561c-2.4-.6-38.1-1-103.9-1H720V459.7c0-65.8-.4-101.5-1-103.9a19.29,19.29,0,0,0-10.5-11.9c-3.7-1.7-8.1-1.9-68.5-1.9C579.4,342,575.3,342.2,571.5,343.9Z" transform="translate(-342 -342)"/></svg>